<?xml version="1.0" encoding="UTF-8"?>
<svg version="1.1" xmlns="http://www.w3.org/2000/svg" width="1468" height="1468">
<path d="M0 0 C9.08543812 7.94670381 16.50399871 16.84841136 23 27 C23.36464355 27.56831543 23.72928711 28.13663086 24.10498047 28.72216797 C40.73849139 55.11440689 46.36942393 88.94300151 40.09765625 119.47265625 C34.56478181 143.40616945 24.05974171 163.18078885 7.43033981 181.12855053 C6.9103563 181.69039565 6.39037278 182.25224077 5.85463218 182.8311115 C0.34466512 188.75192582 -5.34638899 194.48293513 -11.07293701 200.19319153 C-12.23845064 201.35914261 -13.40374392 202.52531398 -14.56883931 203.69168299 C-17.73193589 206.8569904 -20.8980991 210.0192139 -24.06482458 213.1808902 C-27.49387592 216.60558757 -30.92000017 220.03321119 -34.34649658 223.46046448 C-40.2705712 229.38506122 -46.19646116 235.30783708 -52.12361908 241.22934914 C-60.69309314 249.79066577 -69.25977573 258.35477123 -77.82579866 266.91954073 C-91.7266346 280.81819279 -105.62969813 294.7146143 -119.53417969 308.60961914 C-133.03405523 322.10030334 -146.5328709 335.59204662 -160.03027344 349.08520508 C-161.28008256 350.33462011 -161.28008256 350.33462011 -162.55514035 351.60927586 C-166.73544992 355.78828031 -170.91573879 359.96730549 -175.09601736 364.14634097 C-209.72746795 398.76743964 -244.36254107 433.38491258 -279 468 C-275.69983022 471.90940368 -272.38313229 475.74225973 -268.75697327 479.35655212 C-267.96791092 480.14554398 -267.17884857 480.93453583 -266.36587524 481.74743652 C-265.51947479 482.58867065 -264.67307434 483.42990479 -263.80102539 484.29663086 C-262.40957872 485.68583599 -261.01813218 487.07504126 -259.62669075 488.46425164 C-258.14246325 489.94512557 -256.65699565 491.42474502 -255.17115974 492.90400505 C-252.06171505 495.9998313 -248.95617393 499.09955404 -245.85118103 502.19984436 C-238.69859931 509.34042507 -231.54100353 516.47597281 -224.38333893 523.61145782 C-217.82137783 530.15318557 -211.26050808 536.69599822 -204.70369524 543.2428866 C-201.62365967 546.31797125 -198.54121032 549.39060849 -195.45682347 552.46132839 C-193.99711443 553.91534114 -192.53858107 555.37052128 -191.08055115 556.82621765 C-189.31217441 558.59175114 -187.54202281 560.35550967 -185.76965332 562.11703491 C-184.58183006 563.30475243 -184.58183006 563.30475243 -183.37001038 564.51646423 C-182.69106751 565.19318648 -182.01212465 565.86990873 -181.31260777 566.56713772 C-179.38145891 568.5987054 -177.54399533 570.6659977 -175.71285629 572.78630257 C-172.04832323 576.9990895 -168.17766511 580.96209417 -164.22428894 584.9026947 C-163.47242902 585.65611462 -162.72056909 586.40953453 -161.94592553 587.18578535 C-159.445724 589.68995063 -156.94199332 592.19055601 -154.43823242 594.69116211 C-152.63730512 596.49344544 -150.83659041 598.29594121 -149.03607178 600.09863281 C-144.66610042 604.47268112 -140.29380463 608.84439375 -135.92034151 613.21495043 C-132.36748485 616.76554404 -128.81561112 620.31711817 -125.26442909 623.86938667 C-124.75806386 624.37590514 -124.25169863 624.8824236 -123.729989 625.40429111 C-122.70123796 626.43336188 -121.67248917 627.46243488 -120.6437426 628.4915101 C-111.01518583 638.12291321 -101.38357518 647.75125767 -91.75090537 657.37854696 C-83.48234242 665.6426345 -75.21641618 673.90935174 -66.95239258 682.17797852 C-57.34904168 691.78667613 -47.74407709 701.39375589 -38.13651544 710.99824339 C-37.11317222 712.02126806 -36.0898311 713.04429482 -35.06649208 714.06732368 C-34.56300624 714.57065525 -34.0595204 715.07398682 -33.54077741 715.59257085 C-29.98904685 719.14343716 -26.43847966 722.6954642 -22.88835716 726.24793816 C-18.11780503 731.02158081 -13.3446218 735.79257699 -8.56962585 740.56177521 C-6.81351113 742.31656266 -5.05825611 744.07221093 -3.30390358 745.82876015 C-0.91849523 748.21688097 1.46993931 750.60193227 3.85920715 752.9861908 C4.56065017 753.68986453 5.26209319 754.39353827 5.98479205 755.11853546 C6.94048195 756.07031373 6.94048195 756.07031373 7.91547871 757.04131985 C8.46683532 757.59251411 9.01819193 758.14370837 9.58625633 758.71160549 C10.99031479 760.1084603 10.99031479 760.1084603 13 761 C13.24282715 759.79013428 13.4856543 758.58026855 13.73583984 757.33374023 C15.1525816 750.97834772 17.20256251 744.84351013 19.2265625 738.66015625 C19.6510462 737.35295935 20.07513395 736.04563381 20.49885559 734.7381897 C21.40056603 731.9582791 22.30473083 729.17918439 23.21090698 726.40072632 C24.64241683 722.01114901 26.06806325 717.6196823 27.49243164 713.2277832 C27.97437966 711.74186679 28.45632851 710.25595066 28.9382782 708.77003479 C29.17708899 708.03370882 29.41589977 707.29738285 29.66194725 706.53874397 C30.38803214 704.30063906 31.11463998 702.06270452 31.84138489 699.82481384 C36.72371764 684.78787743 41.55752746 669.735525 46.35375977 654.67089844 C46.98316553 652.69463912 47.61264089 650.71840196 48.2421875 648.7421875 C48.70180122 647.29900146 48.70180122 647.29900146 49.17070007 645.82666016 C51.11915381 639.72164792 53.09835096 633.6273708 55.09757996 627.5388031 C56.44178267 623.4408918 57.77519188 619.33950847 59.10745239 615.23770142 C59.7362989 613.3116166 60.37034484 611.38722035 61.00997925 609.46469116 C61.88589428 606.83087325 62.74363467 604.19176462 63.59765625 601.55078125 C63.8581778 600.78343658 64.11869934 600.01609192 64.38711548 599.22549438 C66.33338196 593.10747289 65.83535247 588.14073046 63.87890625 582.01953125 C63.66556641 581.32923828 63.45222656 580.63894531 63.23242188 579.92773438 C62.79178479 578.53645169 62.3491324 577.14580539 61.90429688 575.75585938 C52.74456668 546.02111961 56.88031784 511.69604575 70.9140625 484.12109375 C81.12729362 465.1042368 96.56155512 447.44275846 115 436 C115.66 436 116.32 436 117 436 C117.17989975 435.32245163 117.3597995 434.64490326 117.54515076 433.94682312 C119.26069312 427.56084949 121.12892135 421.24902397 123.16015625 414.95703125 C123.46183212 414.01590988 123.763508 413.07478851 124.07432556 412.10514832 C125.06811071 409.006864 126.06529406 405.90968483 127.0625 402.8125 C127.77299445 400.59967615 128.48327618 398.38678398 129.19335938 396.17382812 C131.07660584 390.30690573 132.96281587 384.44094066 134.84991455 378.57525635 C136.73307536 372.72109773 138.61448055 366.86637494 140.49609375 361.01171875 C142.75864552 353.972235 145.02150439 346.9328504 147.28540039 339.89379883 C152.203649 324.60013175 157.10748396 309.30191706 162 294 C168.39992751 273.98347698 174.82328796 253.97456092 181.26269531 233.97070312 C185.02212379 222.28849532 188.76751232 210.60207607 192.484375 198.90625 C193.20956706 196.62758241 193.93482636 194.34893622 194.66015625 192.0703125 C196.01090014 187.82689672 197.35654993 183.58191411 198.69921875 179.3359375 C210.93692669 140.78982224 227.30499805 110.50519515 264.47558594 91.05566406 C291.91278649 77.40476437 325.07536727 76.73102163 353.875 86.1875 C383.17658729 96.35346679 406.62000214 117.09585965 420.25195312 144.98754883 C442.07146883 191.21017908 426.30926155 233.30239923 411.3125 278.85546875 C407.16169487 291.46560412 403.09829705 304.10265359 399.0625 316.75 C398.39846427 318.82959839 397.73440164 320.90918819 397.0703125 322.98876953 C396.0649909 326.13728739 395.05978764 329.28584279 394.05493164 332.43450928 C390.23644599 344.39779259 386.39956045 356.35516414 382.5625 368.3125 C381.85032673 370.53222173 381.13816854 372.7519483 380.42602539 374.97167969 C378.99779654 379.42336397 377.56948348 383.87502123 376.14111328 388.32666016 C374.00905757 394.971557 371.87750823 401.6166162 369.74609375 408.26171875 C369.21971062 409.90274315 369.21971062 409.90274315 368.68269348 411.57691956 C366.92195624 417.06621439 365.16151171 422.55560282 363.40161133 428.04516602 C360.10783849 438.31820074 356.81128561 448.5903186 353.50512695 458.859375 C351.95767172 463.66640456 350.41176339 468.47393099 348.8659668 473.28149414 C348.1344773 475.55501664 347.40224483 477.82830026 346.66918945 480.10131836 C345.6473164 483.27005143 344.62810188 486.43962929 343.609375 489.609375 C343.31734192 490.51254456 343.02530884 491.41571411 342.72442627 492.34625244 C339.99579187 500.85215335 337.49868437 509.42440672 335 518 C335.45352844 518.45168486 335.90705688 518.90336971 336.37432861 519.36874199 C347.39571033 530.34600645 358.41158702 541.3287606 369.42132568 552.31770134 C374.74562619 557.63167749 380.07179098 562.94375988 385.40234375 568.25146484 C390.04699547 572.87621809 394.68815259 577.50444459 399.32509995 582.13692296 C401.78175917 584.59096878 404.24016444 587.0432075 406.70275879 589.49129868 C409.44789031 592.22039295 412.1852153 594.95723333 414.921875 597.69482422 C415.74473999 598.51049866 416.56760498 599.3261731 417.41540527 600.16656494 C418.15585083 600.90975983 418.89629639 601.65295471 419.65917969 602.41867065 C420.63259308 603.38931867 420.63259308 603.38931867 421.62567139 604.37957573 C423 606 423 606 423 608 C423.57870975 608.25401593 424.15741951 608.50803185 424.75366592 608.76974523 C427.2549113 610.13960784 428.92355685 611.67053469 430.94134521 613.68407631 C431.71870624 614.45498844 432.49606726 615.22590057 433.29698467 616.02017367 C434.14482934 616.87111554 434.99267401 617.72205741 435.86621094 618.5987854 C436.77179402 619.49983737 437.67737711 620.40088935 438.61040211 621.32924592 C441.12527922 623.83187576 443.63385948 626.34073586 446.14144063 628.8506732 C448.84700377 631.55664412 451.55827796 634.25688253 454.26878357 636.957901 C459.58136362 642.2538556 464.88836233 647.55536932 470.19319278 652.85908546 C474.51031667 657.17525866 478.82901723 661.48984788 483.14883423 665.80332565 C495.40927334 678.04614049 507.66549849 690.29315175 519.91637909 702.54553147 C520.57706481 703.2062971 521.23775053 703.86706273 521.91845703 704.54785156 C522.91070308 705.54022025 522.91070308 705.54022025 523.92299449 706.55263679 C534.61829008 717.24874341 545.32350006 727.93486489 556.03331447 738.61643226 C567.0429038 749.59721442 578.04493661 760.58551872 589.0392704 771.58157575 C595.20640844 777.74937547 601.37653692 783.91411079 607.55480957 790.07075882 C612.82151718 795.31915033 618.08109253 800.57456672 623.3318997 805.8388678 C626.00582966 808.519278 628.68272274 811.19651977 631.36865044 813.86491203 C660.74170023 843.05836023 681.27136386 873.67121781 682.04345703 916.40527344 C681.8953154 957.55379002 661.10672007 988.15389612 632.96543503 1016.10972977 C630.97763877 1018.08456255 628.9931586 1020.06267727 627.00942993 1022.04159546 C622.80078621 1026.23891207 618.58819597 1030.43225352 614.375 1034.625 C609.47973121 1039.49655208 604.58615733 1044.36978272 599.69679642 1049.24726486 C597.75414176 1051.18350099 595.80847111 1053.11666965 593.86264038 1055.04971313 C592.65876558 1056.24995167 591.45503305 1057.45033293 590.25146484 1058.65087891 C589.72037613 1059.1768013 589.18928741 1059.70272369 588.6421051 1060.24458313 C586.00751769 1062.87880628 583.49936425 1065.56462392 581.090662 1068.40723515 C575.82687325 1074.44069709 570.11168872 1080.03681046 564.45239258 1085.69477844 C563.17402349 1086.97645157 561.895866 1088.25833576 560.61790085 1089.54041165 C557.11903721 1093.04924147 553.61707569 1096.55496486 550.11455655 1100.06014526 C546.33210843 1103.84651233 542.55249265 1107.63570507 538.77244568 1111.42446899 C529.65143625 1120.56519489 520.52562165 1129.70111612 511.39920235 1138.83644012 C507.09627569 1143.14375634 502.79383703 1147.45155995 498.49133301 1151.75929832 C484.18099 1166.08664647 469.86939158 1180.41273883 455.5541687 1194.73521137 C451.84355743 1198.44773237 448.13295148 1202.16025868 444.42236328 1205.87280273 C443.50017525 1206.7954745 442.57798723 1207.71814627 441.62785411 1208.66877779 C426.69064435 1223.61428721 411.76197432 1238.56829633 396.83686149 1253.5258852 C381.49737446 1268.89847642 366.15033594 1284.26349581 350.79588413 1299.62114018 C342.18155607 1308.23762988 333.57052564 1316.85735876 324.96792603 1325.48555946 C317.6418528 1332.83338531 310.3089307 1340.17428962 302.96712321 1347.5063955 C299.22553714 1351.24345057 295.48719292 1354.9835977 291.75762749 1358.73265266 C288.33507622 1362.17293339 284.90320196 1365.60363315 281.46405828 1369.02732458 C280.22970082 1370.25932081 278.99862995 1371.49462198 277.77144682 1372.73376469 C253.13952712 1397.59055914 221.67820363 1414.9167009 186.00463867 1415.38012695 C172.84842941 1415.36088067 160.7022272 1414.48892461 148 1411 C147.33258789 1410.82339844 146.66517578 1410.64679688 145.97753906 1410.46484375 C117.16969783 1402.62794991 91.511533 1382.27427417 76 1357 C75.4534375 1356.17628906 74.906875 1355.35257813 74.34375 1354.50390625 C71.21196778 1349.63845888 68.85760938 1344.59611756 66.6875 1339.25 C66.43266846 1338.62367676 66.17783691 1337.99735352 65.9152832 1337.35205078 C64.44848081 1333.59027527 63.52163368 1330.0012372 63 1326 C62.33355469 1326.556875 61.66710937 1327.11375 60.98046875 1327.6875 C58.00651142 1330.14985349 55.0064245 1332.57742086 52 1335 C51.19433594 1335.66902344 50.38867188 1336.33804687 49.55859375 1337.02734375 C29.73398834 1352.58790883 5.03658932 1359.42273043 -19.8125 1359.3125 C-20.47463501 1359.31034485 -21.13677002 1359.3081897 -21.81896973 1359.30596924 C-31.60583962 1359.25485747 -40.58812459 1358.84719975 -50 1356 C-50.69416016 1355.80132324 -51.38832031 1355.60264648 -52.10351562 1355.39794922 C-68.82377871 1350.56644463 -82.66422649 1343.1276337 -96 1332 C-96.89589844 1331.2575 -97.79179688 1330.515 -98.71484375 1329.75 C-118.78387177 1312.43311912 -132.96763948 1285.78339025 -135.83227539 1259.30908203 C-136.21175794 1254.08470658 -136.26986012 1248.86117689 -136.3125 1243.625 C-136.35600586 1241.90216797 -136.35600586 1241.90216797 -136.40039062 1240.14453125 C-136.53545473 1221.29789385 -129.88300858 1203.55013812 -124.1875 1185.8125 C-123.39941896 1183.33861422 -122.61183509 1180.86457002 -121.82470703 1178.39038086 C-113.95275774 1153.67905658 -105.93154006 1129.01515074 -97.92329407 1104.3477478 C-90.95326003 1082.8778132 -84.04870895 1061.38752759 -77.19433594 1039.88037109 C-75.31988803 1034.00029103 -73.44085123 1028.12168597 -71.56104469 1022.2433176 C-69.59936296 1016.10841686 -67.64000093 1009.972778 -65.68214989 1003.83665371 C-64.47530254 1000.05443658 -63.26755522 996.27251263 -62.05755615 992.49130249 C-60.92402598 988.94879548 -59.7932692 985.40541515 -58.66462326 981.86134911 C-58.24486733 980.54493448 -57.82410541 979.22884016 -57.40230179 977.91308022 C-56.82347576 976.10696889 -56.24854455 974.29961072 -55.67382812 972.4921875 C-55.34902466 971.47495605 -55.02422119 970.45772461 -54.6895752 969.40966797 C-53.90829122 967.09726307 -53.90829122 967.09726307 -54 965 C-54.57105469 965.13277344 -55.14210938 965.26554688 -55.73046875 965.40234375 C-86.90664914 972.19270418 -121.39080554 966.73189518 -148.375 949.5625 C-160.56626713 941.59128688 -170.58711165 931.70114644 -180.82727051 921.4334259 C-182.42465194 919.83906788 -184.02246652 918.24514374 -185.62067461 916.65161437 C-189.99568582 912.28686736 -194.36446336 907.91592778 -198.73220277 903.54390562 C-202.96485935 899.30903291 -207.20220208 895.07885554 -211.43937044 890.8484982 C-221.17112286 881.13196021 -230.89612817 871.40868816 -240.61904037 861.68330524 C-248.1290141 854.17149654 -255.64078629 846.66149055 -263.15382385 839.1527462 C-264.23445342 838.07271904 -265.31508238 836.99269128 -266.39571074 835.91266292 C-268.0242584 834.28502255 -269.65280675 832.65738287 -271.28135896 831.02974705 C-286.41661835 815.9029134 -301.54983512 800.77403874 -316.67879486 785.64090443 C-317.24874944 785.07079347 -317.81870401 784.50068252 -318.40592994 783.91329548 C-321.29446263 781.02395704 -324.18297531 778.1345986 -327.07147998 775.24523214 C-327.64511226 774.67142878 -328.21874453 774.09762541 -328.80975961 773.50643406 C-329.96978217 772.34606484 -331.1298038 771.18569468 -332.28982449 770.02532359 C-350.33726521 751.97252643 -368.39133645 733.92638423 -386.45068359 715.88549805 C-406.75627466 695.60064 -427.05684526 675.31077661 -447.35006475 655.0135414 C-449.51542045 652.84779038 -451.68079304 650.68205624 -453.84617615 648.51633263 C-454.37931615 647.98310189 -454.91245615 647.44987116 -455.46175191 646.90048192 C-463.49708454 638.86398513 -471.53630793 630.83139441 -479.57752991 622.80079079 C-488.72680102 613.66358913 -497.87078127 604.52113028 -507.0078274 595.37170313 C-511.66745838 590.7060403 -516.32959682 586.04293645 -520.99824333 581.3862896 C-525.27687662 577.11852566 -529.54845156 572.84382395 -533.81464523 568.56362601 C-535.3542984 567.02132886 -536.89645535 565.481526 -538.44143873 563.94456837 C-549.10859439 553.32896269 -559.50293358 542.52609309 -566.75 529.1875 C-567.11504639 528.52355225 -567.48009277 527.85960449 -567.85620117 527.17553711 C-582.77589434 499.26477 -586.34666192 465.82419169 -577.74609375 435.37109375 C-568.70681976 405.64164424 -549.67809642 384.36127568 -528.11135864 362.84393311 C-526.54298892 361.27181791 -524.97504946 359.69927338 -523.40749824 358.12634206 C-519.13769039 353.84440076 -514.86175932 349.56862208 -510.58469653 345.2939291 C-506.43442759 341.14402848 -502.28885396 336.98944572 -498.14306426 332.83507105 C-488.62864452 323.30139741 -479.10745873 313.77450065 -469.58398236 304.24987504 C-462.22838504 296.8933559 -454.87439432 289.53523435 -447.52151108 282.1760025 C-445.3991406 280.05183677 -443.27676231 277.92767884 -441.15438163 275.8035233 C-440.62665282 275.27535239 -440.09892401 274.74718148 -439.55520341 274.2030054 C-424.7303736 259.36588342 -409.90335371 244.53095297 -395.07193184 229.70042038 C-394.23470622 228.86324149 -394.23470622 228.86324149 -393.38056695 228.0091499 C-390.55209021 225.18083936 -387.72359753 222.35254477 -384.89510132 219.5242537 C-384.33342263 218.96261489 -383.77174393 218.40097609 -383.19304467 217.82231792 C-382.0571977 216.68655183 -380.92134937 215.55078709 -379.78549968 214.41502372 C-362.10651975 196.73726978 -344.43568663 179.05140736 -326.77099609 161.359375 C-306.89340581 141.45102987 -287.00903859 121.54948686 -267.11513603 101.65744138 C-264.99210765 99.53456225 -262.86910519 97.41165721 -260.74612045 95.28873444 C-260.22343912 94.76607641 -259.70075779 94.24341839 -259.16223763 93.70492224 C-250.7728627 85.31560871 -242.38990448 76.91991197 -234.00919424 68.52194369 C-225.58176527 60.07752006 -217.14681607 51.64066534 -208.70432843 43.21129653 C-204.13641352 38.64990051 -199.57173528 34.08538849 -195.0157814 29.512043 C-190.83847387 25.3189539 -186.65190011 21.1353469 -182.4580128 16.95884266 C-180.94927778 15.45316617 -179.44385247 13.94416363 -177.94225706 12.43136677 C-158.80278294 -6.84129955 -139.22952299 -19.50286307 -113 -27 C-111.99428955 -27.29245605 -111.99428955 -27.29245605 -110.96826172 -27.59082031 C-72.41098688 -38.2519119 -29.83587522 -24.99640279 0 0 Z M248 785 C236.93945457 819.24200237 225.90671449 853.49245311 214.9521637 887.76853943 C211.16400912 899.61921963 207.36341002 911.46590599 203.5625 923.3125 C203.20983063 924.41175812 202.85716125 925.51101624 202.49380493 926.64358521 C200.70967544 932.20464262 198.92543199 937.76566345 197.14111328 943.32666016 C193.94718666 953.28104962 190.75438194 963.23579893 187.56149292 973.19052124 C185.79104127 978.71036224 184.02051695 984.23017994 182.25 989.75 C181.54166632 991.95833322 180.83333299 994.16666656 180.125 996.375 C173.04166667 1018.45833333 165.95833333 1040.54166667 158.875 1062.625 C158.52445053 1063.71790344 158.17390106 1064.81080688 157.81272888 1065.93682861 C157.10366532 1068.14741039 156.39456899 1070.35798167 155.68544006 1072.56854248 C153.92551179 1078.05488929 152.1661345 1083.54141153 150.40795898 1089.02832031 C147.09116295 1099.37733043 143.76855725 1109.72438102 140.42776489 1120.06567383 C138.85018445 1124.95010483 137.27556359 1129.83548765 135.70117188 1134.72094727 C134.94988539 1137.0493877 134.19714932 1139.37736098 133.44287109 1141.70483398 C132.39704027 1144.93225757 131.35621844 1148.16125818 130.31640625 1151.390625 C130.00888931 1152.33508484 129.70137238 1153.27954468 129.38453674 1154.25262451 C127.60672881 1159.7939042 126.1776533 1165.29996945 125 1171 C130.79669563 1166.1837106 136.13014834 1161.01060384 141.45043945 1155.67654419 C142.84857738 1154.28074625 142.84857738 1154.28074625 144.27496052 1152.85675037 C146.84743501 1150.2884318 149.41680402 1147.71702644 151.98564768 1145.14507699 C154.76234666 1142.36610883 157.5419298 1139.59002796 160.32113647 1136.81356812 C165.75965111 1131.37949409 171.19546606 1125.9427273 176.63030982 1120.50498213 C181.04901191 1116.08401906 185.46869224 1111.66403617 189.8890686 1107.24474716 C190.51888148 1106.61508752 191.14869435 1105.98542788 191.79759246 1105.33668765 C193.07717537 1104.05742447 194.35676052 1102.77816353 195.63634789 1101.49890481 C207.62807344 1089.51002911 219.61673505 1077.5180933 231.60434735 1065.52510498 C241.88195813 1055.24302771 252.16218637 1044.96357355 262.44433594 1034.68603516 C274.39369103 1022.74203644 286.3414159 1010.79641085 298.2865591 998.84819973 C299.56134778 997.57309252 300.83613853 996.29798739 302.1109314 995.02288437 C302.73809864 994.39556285 303.36526588 993.76824133 304.01143819 993.12191007 C308.42309568 988.70939054 312.83590966 984.29802962 317.24917603 979.88711929 C322.63100223 974.50810313 328.01103193 969.12729777 333.38879514 963.74421944 C336.13067198 960.99972167 338.87332896 958.25601618 341.61817551 955.51448822 C344.59802984 952.53818202 347.57397083 949.55799289 350.54956055 946.5774231 C351.41153203 945.71768233 352.27350351 944.85794157 353.16159534 943.97214806 C357.42973093 939.69016607 361.55321877 935.34607216 365.47788715 930.74593532 C367.99345574 927.86045935 370.70979323 925.18321469 373.4375 922.5 C373.97826172 921.96375 374.51902344 921.4275 375.07617188 920.875 C376.38176617 919.58095964 377.69052996 918.29011826 379 917 C377.42256473 913.14427418 374.81813168 910.5404289 371.90684509 907.65960693 C371.38314711 907.13349453 370.85944912 906.60738213 370.3198815 906.06532693 C368.56425195 904.30406261 366.80156629 902.55003621 365.03881836 900.79589844 C363.77865561 899.53466278 362.51892592 898.27299429 361.25959778 897.01092529 C357.83870959 893.58518821 354.41160155 890.16573612 350.98321986 886.74750042 C347.4009427 883.17399887 343.8239306 879.59523434 340.24623108 876.01715088 C334.23974272 870.01159911 328.2293928 864.00993417 322.21655273 858.01074219 C315.2547134 851.06464618 308.29813247 844.11331941 301.34452718 837.15898108 C294.66421844 830.47806311 287.98106228 823.80000159 281.29629707 817.12354279 C278.44663599 814.27742144 275.59783413 811.43044407 272.74967766 808.58281708 C269.4007758 805.23491595 266.04934882 801.88956338 262.69590569 798.54621124 C261.46184723 797.31508599 260.22864627 796.08310055 258.99634171 794.85021973 C257.32191721 793.17530835 255.64447566 791.50348073 253.96617126 789.8324585 C253.47240696 789.33714559 252.97864266 788.84183269 252.46991581 788.33151031 C250.56582911 786.00310711 250.56582911 786.00310711 248 785 Z " fill="#FDFDFD" transform="translate(672,40)"/>
<path d="M0 0 C9.08543812 7.94670381 16.50399871 16.84841136 23 27 C23.36464355 27.56831543 23.72928711 28.13663086 24.10498047 28.72216797 C40.73849139 55.11440689 46.36942393 88.94300151 40.09765625 119.47265625 C34.56478181 143.40616945 24.05974171 163.18078885 7.43033981 181.12855053 C6.9103563 181.69039565 6.39037278 182.25224077 5.85463218 182.8311115 C0.34466512 188.75192582 -5.34638899 194.48293513 -11.07293701 200.19319153 C-12.23845064 201.35914261 -13.40374392 202.52531398 -14.56883931 203.69168299 C-17.73193589 206.8569904 -20.8980991 210.0192139 -24.06482458 213.1808902 C-27.49387592 216.60558757 -30.92000017 220.03321119 -34.34649658 223.46046448 C-40.2705712 229.38506122 -46.19646116 235.30783708 -52.12361908 241.22934914 C-60.69309314 249.79066577 -69.25977573 258.35477123 -77.82579866 266.91954073 C-91.7266346 280.81819279 -105.62969813 294.7146143 -119.53417969 308.60961914 C-133.03405523 322.10030334 -146.5328709 335.59204662 -160.03027344 349.08520508 C-161.28008256 350.33462011 -161.28008256 350.33462011 -162.55514035 351.60927586 C-166.73544992 355.78828031 -170.91573879 359.96730549 -175.09601736 364.14634097 C-209.72746795 398.76743964 -244.36254107 433.38491258 -279 468 C-275.69983022 471.90940368 -272.38313229 475.74225973 -268.75697327 479.35655212 C-267.96791092 480.14554398 -267.17884857 480.93453583 -266.36587524 481.74743652 C-265.51947479 482.58867065 -264.67307434 483.42990479 -263.80102539 484.29663086 C-262.40957872 485.68583599 -261.01813218 487.07504126 -259.62669075 488.46425164 C-258.14246325 489.94512557 -256.65699565 491.42474502 -255.17115974 492.90400505 C-252.06171505 495.9998313 -248.95617393 499.09955404 -245.85118103 502.19984436 C-238.69859931 509.34042507 -231.54100353 516.47597281 -224.38333893 523.61145782 C-217.82137783 530.15318557 -211.26050808 536.69599822 -204.70369524 543.2428866 C-201.62365967 546.31797125 -198.54121032 549.39060849 -195.45682347 552.46132839 C-193.99711443 553.91534114 -192.53858107 555.37052128 -191.08055115 556.82621765 C-189.31217441 558.59175114 -187.54202281 560.35550967 -185.76965332 562.11703491 C-184.58183006 563.30475243 -184.58183006 563.30475243 -183.37001038 564.51646423 C-182.69106751 565.19318648 -182.01212465 565.86990873 -181.31260777 566.56713772 C-179.38136733 568.59880175 -177.54398382 570.66623696 -175.71285629 572.78672314 C-172.04928711 576.99838312 -168.17855119 580.95838928 -164.22428894 584.89596558 C-163.47242902 585.64867993 -162.72056909 586.40139427 -161.94592553 587.17691815 C-159.4457264 589.67875408 -156.94198905 592.17701767 -154.43823242 594.67529297 C-152.63729731 596.47594578 -150.83658281 598.27681926 -149.03607178 600.07789612 C-145.16892097 603.94527408 -141.30025081 607.81112184 -137.43016624 611.67556381 C-131.83261163 617.26496277 -126.2378475 622.85714814 -120.6437426 628.44999947 C-111.56303598 637.52852139 -102.48010211 646.60481156 -93.39575195 655.6796875 C-84.58012474 664.48613038 -75.76555215 673.29362663 -66.95239258 682.10253906 C-66.40874226 682.64592666 -65.86509194 683.18931426 -65.30496737 683.74916814 C-62.57714173 686.47568855 -59.84933684 689.20222972 -57.12154233 691.92878127 C-36.08889013 712.951801 -15.05327127 733.97184934 5.98479205 754.98945415 C6.94048195 755.94421899 6.94048195 755.94421899 7.91547871 756.91827202 C8.46683532 757.46908656 9.01819193 758.0199011 9.58625633 758.58740699 C10.72444222 759.7246665 11.8622772 760.8622772 13 762 C12.7578125 764.6015625 12.7578125 764.6015625 12.125 767.625 C11.92132812 768.62789062 11.71765625 769.63078125 11.5078125 770.6640625 C11.34023438 771.43492187 11.17265625 772.20578125 11 773 C10.34 773 9.68 773 9 773 C8.90203125 773.71542969 8.8040625 774.43085937 8.703125 775.16796875 C7.51998085 783.05219659 5.51189639 790.43992349 3 798 C2.34 798 1.68 798 1 798 C0.91363281 798.76441406 0.82726562 799.52882813 0.73828125 800.31640625 C-0.44674895 809.35090258 -2.91218418 817.47904261 -6 826 C-6.66 826 -7.32 826 -8 826 C-8.2475 827.155 -8.495 828.31 -8.75 829.5 C-10.3456365 836.7034894 -12.19213402 843.8475205 -14 851 C-14.66 851 -15.32 851 -16 851 C-16.0928125 852.7634375 -16.0928125 852.7634375 -16.1875 854.5625 C-16.82068836 860.43811553 -18.80040998 865.81071976 -20.74609375 871.3515625 C-21.72723029 874.20633362 -22.58122851 877.052828 -23.4019928 879.95483398 C-24.57882232 883.9795543 -25.8924554 887.96130543 -27.1875 891.94921875 C-27.49067139 892.88425735 -27.79384277 893.81929596 -28.10620117 894.78266907 C-28.74427114 896.74864516 -29.38303666 898.71439562 -30.02246094 900.67993164 C-30.99993189 903.68729045 -31.97268054 906.69615137 -32.9453125 909.70507812 C-33.56741859 911.61988583 -34.18980476 913.53460256 -34.8125 915.44921875 C-35.10213623 916.34718674 -35.39177246 917.24515472 -35.69018555 918.17033386 C-35.96386963 919.00833023 -36.23755371 919.8463266 -36.51953125 920.7097168 C-36.75776611 921.4436113 -36.99600098 922.1775058 -37.24145508 922.93363953 C-38.01782485 925.04855686 -38.98637516 926.99037162 -40 929 C-40.43493949 930.63593369 -40.82568911 932.28385425 -41.1875 933.9375 C-42.65546619 940.0515035 -44.56568089 945.97680764 -46.5625 951.9375 C-46.86760498 952.84943115 -47.17270996 953.7613623 -47.48706055 954.70092773 C-48.88814003 958.84663487 -50.30576943 962.96250525 -52 967 C-52.66 966.34 -53.32 965.68 -54 965 C-56.02091518 965.17151949 -56.02091518 965.17151949 -58.3125 965.8125 C-87.5161287 972.33492428 -121.20147631 966.37847986 -146.60229492 950.69042969 C-159.52483312 942.46812884 -170.06289859 932.22677043 -180.82727051 921.4334259 C-182.42465194 919.83906788 -184.02246652 918.24514374 -185.62067461 916.65161437 C-189.99568582 912.28686736 -194.36446336 907.91592778 -198.73220277 903.54390562 C-202.96485935 899.30903291 -207.20220208 895.07885554 -211.43937044 890.8484982 C-221.17112286 881.13196021 -230.89612817 871.40868816 -240.61904037 861.68330524 C-248.1290141 854.17149654 -255.64078629 846.66149055 -263.15382385 839.1527462 C-264.23445342 838.07271904 -265.31508238 836.99269128 -266.39571074 835.91266292 C-268.0242584 834.28502255 -269.65280675 832.65738287 -271.28135896 831.02974705 C-286.41661835 815.9029134 -301.54983512 800.77403874 -316.67879486 785.64090443 C-317.24874944 785.07079347 -317.81870401 784.50068252 -318.40592994 783.91329548 C-321.29446263 781.02395704 -324.18297531 778.1345986 -327.07147998 775.24523214 C-327.64511226 774.67142878 -328.21874453 774.09762541 -328.80975961 773.50643406 C-329.96978217 772.34606484 -331.1298038 771.18569468 -332.28982449 770.02532359 C-350.33726521 751.97252643 -368.39133645 733.92638423 -386.45068359 715.88549805 C-406.75627466 695.60064 -427.05684526 675.31077661 -447.35006475 655.0135414 C-449.51542045 652.84779038 -451.68079304 650.68205624 -453.84617615 648.51633263 C-454.37931615 647.98310189 -454.91245615 647.44987116 -455.46175191 646.90048192 C-463.49708454 638.86398513 -471.53630793 630.83139441 -479.57752991 622.80079079 C-488.72680102 613.66358913 -497.87078127 604.52113028 -507.0078274 595.37170313 C-511.66745838 590.7060403 -516.32959682 586.04293645 -520.99824333 581.3862896 C-525.27687662 577.11852566 -529.54845156 572.84382395 -533.81464523 568.56362601 C-535.3542984 567.02132886 -536.89645535 565.481526 -538.44143873 563.94456837 C-549.10859439 553.32896269 -559.50293358 542.52609309 -566.75 529.1875 C-567.11504639 528.52355225 -567.48009277 527.85960449 -567.85620117 527.17553711 C-582.77589434 499.26477 -586.34666192 465.82419169 -577.74609375 435.37109375 C-568.70681976 405.64164424 -549.67809642 384.36127568 -528.11135864 362.84393311 C-526.54298892 361.27181791 -524.97504946 359.69927338 -523.40749824 358.12634206 C-519.13769039 353.84440076 -514.86175932 349.56862208 -510.58469653 345.2939291 C-506.43442759 341.14402848 -502.28885396 336.98944572 -498.14306426 332.83507105 C-488.62864452 323.30139741 -479.10745873 313.77450065 -469.58398236 304.24987504 C-462.22838504 296.8933559 -454.87439432 289.53523435 -447.52151108 282.1760025 C-445.3991406 280.05183677 -443.27676231 277.92767884 -441.15438163 275.8035233 C-440.62665282 275.27535239 -440.09892401 274.74718148 -439.55520341 274.2030054 C-424.7303736 259.36588342 -409.90335371 244.53095297 -395.07193184 229.70042038 C-394.23470622 228.86324149 -394.23470622 228.86324149 -393.38056695 228.0091499 C-390.55209021 225.18083936 -387.72359753 222.35254477 -384.89510132 219.5242537 C-384.33342263 218.96261489 -383.77174393 218.40097609 -383.19304467 217.82231792 C-382.0571977 216.68655183 -380.92134937 215.55078709 -379.78549968 214.41502372 C-362.10651975 196.73726978 -344.43568663 179.05140736 -326.77099609 161.359375 C-306.89340581 141.45102987 -287.00903859 121.54948686 -267.11513603 101.65744138 C-264.99210765 99.53456225 -262.86910519 97.41165721 -260.74612045 95.28873444 C-260.22343912 94.76607641 -259.70075779 94.24341839 -259.16223763 93.70492224 C-250.7728627 85.31560871 -242.38990448 76.91991197 -234.00919424 68.52194369 C-225.58176527 60.07752006 -217.14681607 51.64066534 -208.70432843 43.21129653 C-204.13641352 38.64990051 -199.57173528 34.08538849 -195.0157814 29.512043 C-190.83847387 25.3189539 -186.65190011 21.1353469 -182.4580128 16.95884266 C-180.94927778 15.45316617 -179.44385247 13.94416363 -177.94225706 12.43136677 C-158.80278294 -6.84129955 -139.22952299 -19.50286307 -113 -27 C-111.99428955 -27.29245605 -111.99428955 -27.29245605 -110.96826172 -27.59082031 C-72.41098688 -38.2519119 -29.83587522 -24.99640279 0 0 Z " fill="#18A8B8" transform="translate(672,40)"/>
<path d="M0 0 C5.40605114 4.51371002 10.43691843 9.28865126 15.41381836 14.26855469 C16.2243869 15.07576462 17.03495544 15.88297455 17.87008667 16.71464539 C20.52931092 19.36442464 23.18479889 22.01790849 25.83984375 24.671875 C27.69064588 26.51946269 29.54152283 28.36697543 31.39247131 30.2144165 C35.26012707 34.07570062 39.12534915 37.93940987 42.98950195 41.80419922 C47.45949748 46.27479815 51.93507092 50.73975934 56.41322798 55.20218158 C60.72701063 59.50134585 65.03528319 63.80599128 69.34146309 68.11277008 C71.1735782 69.94370145 73.00732346 71.77300307 74.84269524 73.60066986 C77.39718703 76.14543046 79.94534394 78.69636826 82.49194336 81.24902344 C83.25705734 82.00851791 84.02217133 82.76801239 84.81047058 83.55052185 C85.49872925 84.24297501 86.18698792 84.93542816 86.89610291 85.64886475 C87.49908172 86.25129879 88.10206053 86.85373283 88.72331142 87.47442245 C90 89 90 89 90 91 C90.57870975 91.25401593 91.15741951 91.50803185 91.75366592 91.76974523 C94.2549113 93.13960784 95.92355685 94.67053469 97.94134521 96.68407631 C98.71870624 97.45498844 99.49606726 98.22590057 100.29698467 99.02017367 C101.56875167 100.29658648 101.56875167 100.29658648 102.86621094 101.5987854 C103.77179402 102.49983737 104.67737711 103.40088935 105.61040211 104.32924592 C108.12527922 106.83187576 110.63385948 109.34073586 113.14144063 111.8506732 C115.84700377 114.55664412 118.55827796 117.25688253 121.26878357 119.957901 C126.58136362 125.2538556 131.88836233 130.55536932 137.19319278 135.85908546 C141.51031667 140.17525866 145.82901723 144.48984788 150.14883423 148.80332565 C162.40927334 161.04614049 174.66549849 173.29315175 186.91637909 185.54553147 C187.57706481 186.2062971 188.23775053 186.86706273 188.91845703 187.54785156 C189.57995439 188.20943069 190.24145176 188.87100981 190.92299449 189.55263679 C201.61829008 200.24874341 212.32350006 210.93486489 223.03331447 221.61643226 C234.0429038 232.59721442 245.04493661 243.58551872 256.0392704 254.58157575 C262.20640844 260.74937547 268.37653692 266.91411079 274.55480957 273.07075882 C279.82151718 278.31915033 285.08109253 283.57456672 290.3318997 288.8388678 C293.00582966 291.519278 295.68272274 294.19651977 298.36865044 296.86491203 C327.74170023 326.05836023 348.27136386 356.67121781 349.04345703 399.40527344 C348.8953154 440.55379002 328.10672007 471.15389612 299.96543503 499.10972977 C297.97763877 501.08456255 295.9931586 503.06267727 294.00942993 505.04159546 C289.80078621 509.23891207 285.58819597 513.43225352 281.375 517.625 C276.47973121 522.49655208 271.58615733 527.36978272 266.69679642 532.24726486 C264.75414176 534.18350099 262.80847111 536.11666965 260.86264038 538.04971313 C259.65876558 539.24995167 258.45503305 540.45033293 257.25146484 541.65087891 C256.72037613 542.1768013 256.18928741 542.70272369 255.6421051 543.24458313 C253.00751769 545.87880628 250.49936425 548.56462392 248.090662 551.40723515 C242.82687325 557.44069709 237.11168872 563.03681046 231.45239258 568.69477844 C230.17402349 569.97645157 228.895866 571.25833576 227.61790085 572.54041165 C224.11903721 576.04924147 220.61707569 579.55496486 217.11455655 583.06014526 C213.33210843 586.84651233 209.55249265 590.63570507 205.77244568 594.42446899 C196.65143625 603.56519489 187.52562165 612.70111612 178.39920235 621.83644012 C174.09627569 626.14375634 169.79383703 630.45155995 165.49133301 634.75929832 C151.18099 649.08664647 136.86939158 663.41273883 122.5541687 677.73521137 C118.84355743 681.44773237 115.13295148 685.16025868 111.42236328 688.87280273 C110.50017525 689.7954745 109.57798723 690.71814627 108.62785411 691.66877779 C93.69064435 706.61428721 78.76197432 721.56829633 63.83686149 736.5258852 C48.49737446 751.89847642 33.15033594 767.26349581 17.79588413 782.62114018 C9.18155607 791.23762988 0.57052564 799.85735876 -8.03207397 808.48555946 C-15.3581472 815.83338531 -22.6910693 823.17428962 -30.03287679 830.5063955 C-33.77446286 834.24345057 -37.51280708 837.9835977 -41.24237251 841.73265266 C-44.66492378 845.17293339 -48.09679804 848.60363315 -51.53594172 852.02732458 C-52.77029918 853.25932081 -54.00137005 854.49462198 -55.22855318 855.73376469 C-79.86047288 880.59055914 -111.32179637 897.9167009 -146.99536133 898.38012695 C-160.15157059 898.36088067 -172.2977728 897.48892461 -185 894 C-185.66741211 893.82339844 -186.33482422 893.64679687 -187.02246094 893.46484375 C-215.83030217 885.62794991 -241.488467 865.27427417 -257 840 C-257.5465625 839.17628906 -258.093125 838.35257813 -258.65625 837.50390625 C-261.78803222 832.63845888 -264.14239062 827.59611756 -266.3125 822.25 C-266.56733154 821.62367676 -266.82216309 820.99735352 -267.0847168 820.35205078 C-268.22697515 817.42260403 -269.04480648 814.72020126 -269.54296875 811.609375 C-269.76919922 810.31773437 -269.76919922 810.31773437 -270 809 C-270.66 808.67 -271.32 808.34 -272 808 C-271.29875 807.14019531 -270.5975 806.28039063 -269.875 805.39453125 C-258.23452281 790.96338764 -246.81311818 774.29395352 -242.8125 755.875 C-241.24686285 749.37158415 -238.92518053 743.25177303 -236.5546875 737.01147461 C-234.52589844 731.60766544 -232.94970372 726.25605141 -231.67578125 720.62109375 C-230.76834949 717.10151739 -229.36700827 713.87009826 -227.95703125 710.52734375 C-226.95815913 707.88950595 -226.30923768 705.31264029 -225.6875 702.5625 C-224.39218994 697.01628289 -222.51810185 691.81301518 -220.5 686.5 C-218.14277516 680.28931495 -216.1519829 674.19994317 -214.6796875 667.7109375 C-213.50027313 663.00683651 -211.71416334 658.52976779 -210 654 C-209.32318977 652.00340982 -208.65038501 650.00535378 -208 648 C-207.67 649.32 -207.34 650.64 -207 652 C-203.762673 649.47385324 -200.74684385 646.8719988 -197.84355354 643.96939468 C-197.043701 643.17214989 -196.24384846 642.3749051 -195.41975796 641.55350137 C-194.5519608 640.68347348 -193.68416363 639.81344559 -192.79006958 638.91705322 C-191.85968648 637.98823011 -190.92930338 637.059407 -189.97072685 636.10243773 C-187.39372641 633.52960775 -184.81984925 630.95367304 -182.24648356 628.37720823 C-179.46838313 625.59684454 -176.68740592 622.81936079 -173.90679932 620.04150391 C-168.46132292 614.60047477 -163.01855438 609.15674467 -157.57675065 603.7120426 C-153.15227882 599.28531195 -148.72683137 594.85955885 -144.30068588 590.43450165 C-143.67060203 589.80457103 -143.04051818 589.17464041 -142.39134087 588.52562098 C-141.1112749 587.24587473 -139.83120668 585.96613073 -138.55113624 584.68638894 C-126.54606549 572.68417011 -114.54406225 560.67888759 -102.54310428 548.67255661 C-92.25296306 538.37795088 -81.96020737 528.08596525 -71.66552734 517.79589844 C-59.70666467 505.84239223 -47.74943242 493.88725894 -35.79478157 481.9295404 C-34.51883835 480.65327864 -33.24289306 479.37701897 -31.96694565 478.10076141 C-31.33918843 477.47284992 -30.71143121 476.84493843 -30.06465105 476.19799931 C-25.64800739 471.78049347 -21.23020693 467.36414655 -16.8119545 462.94824982 C-11.42276016 457.56186571 -6.03536266 452.17369204 -0.65023126 446.78324583 C2.09568218 444.0347114 4.84237588 441.28696936 7.591259 438.54140472 C10.11139985 436.02426012 12.62919035 433.50478844 15.14518572 430.98350045 C16.47922156 429.64783171 17.81569298 428.31459692 19.15227115 426.98147225 C23.42368122 422.69622639 27.55076508 418.34918567 31.4783603 413.74546218 C33.99372357 410.8601067 36.70995487 408.18305568 39.4375 405.5 C39.97826172 404.96375 40.51902344 404.4275 41.07617188 403.875 C42.38176617 402.58095964 43.69052996 401.29011826 45 400 C43.42622697 396.15874839 40.84137044 393.56622533 37.93807983 390.6975708 C37.41775983 390.17554195 36.89743984 389.6535131 36.36135256 389.1156652 C34.61720154 387.36822077 32.866 385.62801915 31.11474609 383.88769531 C29.86280592 382.63631929 28.61130599 381.38450269 27.36021423 380.13227844 C23.96201266 376.73350249 20.55767499 373.34093305 17.15221739 369.94942951 C13.59454157 366.40424675 10.04251966 362.85340852 6.48989868 359.30316162 C-0.23861087 352.58087102 -6.97220295 345.86369541 -13.70762765 339.14833426 C-21.37531241 331.50299556 -29.03732648 323.85198462 -36.69886518 316.20048761 C-52.45960035 300.46066385 -68.22745724 284.72799103 -84 269 C-84.66 269.66 -85.32 270.32 -86 271 C-86 269.68 -86 268.36 -86 267 C-85.34 267 -84.68 267 -84 267 C-83.89816406 265.87464844 -83.79632812 264.74929688 -83.69140625 263.58984375 C-83.07139451 258.67180277 -81.5759299 254.22382857 -79.9375 249.5625 C-79.29672371 247.69060105 -78.65746323 245.81818269 -78.01953125 243.9453125 C-77.68646973 242.97110352 -77.3534082 241.99689453 -77.01025391 240.99316406 C-75.32276253 235.99349169 -73.72419225 230.96597831 -72.125 225.9375 C-71.4505848 223.82159419 -70.77610445 221.70570915 -70.1015625 219.58984375 C-69.75899414 218.51460449 -69.41642578 217.43936523 -69.06347656 216.33154297 C-67.21835584 210.55135073 -65.35856549 204.77588028 -63.5 199 C-60.32863611 189.14007673 -57.1660845 179.27738534 -54.01293945 169.41162109 C-52.31059061 164.08744037 -50.60316645 158.76496614 -48.88671875 153.4453125 C-44.84292842 140.91046712 -40.8255485 128.36722003 -36.85562134 115.80877686 C-36.37588444 114.29279943 -35.89494529 112.77720184 -35.41268921 111.26202393 C-32.90900775 103.39123815 -30.58778011 95.5334254 -28.65332031 87.49902344 C-27.82104655 84.315483 -26.64116087 81.38257045 -25.3125 78.375 C-22.34168905 71.33453252 -20.05301724 64.11396855 -17.8125 56.8125 C-17.31327026 55.19190674 -17.31327026 55.19190674 -16.80395508 53.53857422 C-15.20951788 48.27825317 -13.73711001 43.02077128 -12.453125 37.67578125 C-11.31066 32.99969004 -9.85075128 28.78868966 -7.9375 24.375 C-5.82067648 19.35067791 -4.30728787 14.55034174 -3.43359375 9.1640625 C-2.7704194 5.8541653 -1.45240338 3.03684342 0 0 Z " fill="#CC4937" transform="translate(1005,557)"/>
<path d="M0 0 C5.40605114 4.51371002 10.43691843 9.28865126 15.41381836 14.26855469 C16.2243869 15.07576462 17.03495544 15.88297455 17.87008667 16.71464539 C20.52931092 19.36442464 23.18479889 22.01790849 25.83984375 24.671875 C27.69064588 26.51946269 29.54152283 28.36697543 31.39247131 30.2144165 C35.26012707 34.07570062 39.12534915 37.93940987 42.98950195 41.80419922 C47.45949748 46.27479815 51.93507092 50.73975934 56.41322798 55.20218158 C60.72701063 59.50134585 65.03528319 63.80599128 69.34146309 68.11277008 C71.1735782 69.94370145 73.00732346 71.77300307 74.84269524 73.60066986 C77.39718703 76.14543046 79.94534394 78.69636826 82.49194336 81.24902344 C83.25705734 82.00851791 84.02217133 82.76801239 84.81047058 83.55052185 C85.49872925 84.24297501 86.18698792 84.93542816 86.89610291 85.64886475 C87.49908172 86.25129879 88.10206053 86.85373283 88.72331142 87.47442245 C90 89 90 89 90 91 C90.57975586 91.25378418 91.15951172 91.50756836 91.75683594 91.76904297 C94.25072223 93.13758615 95.89743836 94.66997769 97.890625 96.6953125 C98.59960938 97.41074219 99.30859375 98.12617187 100.0390625 98.86328125 C101.13347656 99.98283203 101.13347656 99.98283203 102.25 101.125 C102.99507812 101.87910156 103.74015625 102.63320313 104.5078125 103.41015625 C106.3431342 105.26900772 108.1736191 107.13237005 110 109 C109.01 109.66 108.02 110.32 107 111 C107.49628906 111.77601563 107.99257812 112.55203125 108.50390625 113.3515625 C118.61395167 129.42787761 126.10288816 145.82682672 130.3125 164.375 C130.47194092 165.0752832 130.63138184 165.77556641 130.7956543 166.49707031 C135.47766004 188.59262527 134.54092658 213.93999099 130 236 C129.70198486 237.44802002 129.70198486 237.44802002 129.39794922 238.92529297 C122.89392331 269.5648577 111.61309979 298.3426527 97 326 C96.56075195 326.83595703 96.12150391 327.67191406 95.66894531 328.53320312 C89.033925 341.10245623 82.01685168 353.26206018 74 365 C73.16782959 366.21864746 73.16782959 366.21864746 72.31884766 367.46191406 C59.38997224 386.30715142 46.12719488 403.75650676 29 419 C28.34 418.67 27.68 418.34 27 418 C32.94 412.06 38.88 406.12 45 400 C43.06633727 396.13267455 40.94788976 393.67147389 37.93807983 390.6975708 C37.15759983 389.91452753 37.15759983 389.91452753 36.36135256 389.1156652 C34.61720154 387.36822077 32.866 385.62801915 31.11474609 383.88769531 C29.86280592 382.63631929 28.61130599 381.38450269 27.36021423 380.13227844 C23.96201266 376.73350249 20.55767499 373.34093305 17.15221739 369.94942951 C13.59454157 366.40424675 10.04251966 362.85340852 6.48989868 359.30316162 C-0.23861087 352.58087102 -6.97220295 345.86369541 -13.70762765 339.14833426 C-21.37531241 331.50299556 -29.03732648 323.85198462 -36.69886518 316.20048761 C-52.45960035 300.46066385 -68.22745724 284.72799103 -84 269 C-84.66 269.66 -85.32 270.32 -86 271 C-86 269.68 -86 268.36 -86 267 C-85.34 267 -84.68 267 -84 267 C-83.89816406 265.87464844 -83.79632812 264.74929688 -83.69140625 263.58984375 C-83.07139451 258.67180277 -81.5759299 254.22382857 -79.9375 249.5625 C-79.29672371 247.69060105 -78.65746323 245.81818269 -78.01953125 243.9453125 C-77.51993896 242.48399902 -77.51993896 242.48399902 -77.01025391 240.99316406 C-75.32276253 235.99349169 -73.72419225 230.96597831 -72.125 225.9375 C-71.4505848 223.82159419 -70.77610445 221.70570915 -70.1015625 219.58984375 C-69.75899414 218.51460449 -69.41642578 217.43936523 -69.06347656 216.33154297 C-67.21835584 210.55135073 -65.35856549 204.77588028 -63.5 199 C-60.32863611 189.14007673 -57.1660845 179.27738534 -54.01293945 169.41162109 C-52.31059061 164.08744037 -50.60316645 158.76496614 -48.88671875 153.4453125 C-44.84292842 140.91046712 -40.8255485 128.36722003 -36.85562134 115.80877686 C-36.37588444 114.29279943 -35.89494529 112.77720184 -35.41268921 111.26202393 C-32.90900775 103.39123815 -30.58778011 95.5334254 -28.65332031 87.49902344 C-27.82104655 84.315483 -26.64116087 81.38257045 -25.3125 78.375 C-22.34168905 71.33453252 -20.05301724 64.11396855 -17.8125 56.8125 C-17.47968018 55.73210449 -17.14686035 54.65170898 -16.80395508 53.53857422 C-15.20951788 48.27825317 -13.73711001 43.02077128 -12.453125 37.67578125 C-11.31066 32.99969004 -9.85075128 28.78868966 -7.9375 24.375 C-5.82067648 19.35067791 -4.30728787 14.55034174 -3.43359375 9.1640625 C-2.7704194 5.8541653 -1.45240338 3.03684342 0 0 Z " fill="#B92744" transform="translate(1005,557)"/>
<path d="M0 0 C1.63993539 4.0383409 0.25279116 7.42983502 -1 11.375 C-1.22131592 12.09872803 -1.44263184 12.82245605 -1.6706543 13.56811523 C-2.43443101 16.04954323 -3.21578709 18.52495645 -4 21 C-4.45947021 22.45865479 -4.45947021 22.45865479 -4.92822266 23.94677734 C-6.93256858 30.30416964 -8.95751862 36.654762 -11 43 C-11.66 43 -12.32 43 -13 43 C-13.06751465 43.6197168 -13.1350293 44.23943359 -13.20458984 44.87792969 C-14.68307521 55.71005933 -18.25402028 65.88835268 -21.625 76.25 C-22.2429541 78.1703264 -22.8601479 80.09089763 -23.4765625 82.01171875 C-24.97562337 86.67734844 -26.48493757 91.33954315 -28 96 C-28.66 96 -29.32 96 -30 96 C-30.09982178 97.26835693 -30.19964355 98.53671387 -30.30249023 99.84350586 C-30.91440419 105.30701859 -32.44852507 110.29635762 -34.16015625 115.50390625 C-34.62415077 116.94974342 -34.62415077 116.94974342 -35.09751892 118.42478943 C-36.07786172 121.47333701 -37.06996386 124.51790321 -38.0625 127.5625 C-38.7332056 129.64102331 -39.40313529 131.71979716 -40.07226562 133.79882812 C-41.70588363 138.86881683 -43.34914803 143.93559839 -45 149 C-45.66 149 -46.32 149 -47 149 C-46.938125 149.9075 -46.87625 150.815 -46.8125 151.75 C-47.02101704 155.36429542 -47.76413747 156.30053343 -50 159 C-51.13702522 155.25354282 -52.25730409 151.50226484 -53.375 147.75 C-53.69210937 146.70585938 -54.00921875 145.66171875 -54.3359375 144.5859375 C-63.73393979 112.86767977 -60.83624528 77.58590773 -45.11303711 48.30957031 C-34.78326332 30.04422284 -19.93060709 13.12759819 -2 2 C-1.34 2 -0.68 2 0 2 C0 1.34 0 0.68 0 0 Z " fill="#E98524" transform="translate(789,474)"/>
<path d="M0 0 C0.66 0.33 1.32 0.66 2 1 C1.24882835 1.53879457 0.4976567 2.07758914 -0.27627772 2.63271081 C-10.09701481 9.84072175 -18.56894593 18.15521324 -27.14143372 26.78067017 C-28.73593777 28.37386384 -30.33110183 29.96639721 -31.9268629 31.55833185 C-36.28244127 35.90723907 -40.62867194 40.26538211 -44.97336113 44.62516427 C-49.18727371 48.8507438 -53.40829251 53.06920985 -57.629121 57.28787861 C-66.25530278 65.91013189 -74.87452267 74.53931241 -83.48972511 83.17253494 C-92.01345089 91.71404351 -100.54030012 100.25241418 -109.07129478 108.78666306 C-109.86849011 109.58416771 -109.86849011 109.58416771 -110.68179038 110.39778356 C-113.38110706 113.09811531 -116.08047922 115.7983916 -118.77987274 118.49864654 C-137.87366275 137.59872905 -156.96049577 156.70574973 -176.04321289 175.81689453 C-194.57581101 194.37706883 -213.11157483 212.93407227 -231.65161133 231.48681641 C-232.22361896 232.05921861 -232.79562659 232.63162082 -233.38496778 233.22136855 C-239.12957984 238.96993635 -244.87425607 244.71844 -250.61897932 250.46689667 C-262.32047004 262.17599497 -274.0215325 273.88552118 -285.72233582 285.5953064 C-286.26025879 286.13364124 -286.79818177 286.67197609 -287.35240544 287.22662411 C-323.24211565 323.14391203 -359.12181155 359.07120328 -395 395 C-395.495 393.515 -395.495 393.515 -396 392 C-359.89438116 355.82587282 -323.78634594 319.65415969 -287.66505432 283.49568176 C-287.13001517 282.96009039 -286.59497603 282.42449901 -286.04372357 281.87267759 C-274.41444487 270.23142584 -262.78471973 258.59062018 -251.15453496 246.95027364 C-245.45067792 241.24142748 -239.74691949 235.5324828 -234.04321289 229.82348633 C-233.47563921 229.25538961 -232.90806553 228.6872929 -232.32329265 228.10198113 C-213.94347875 209.70513732 -195.57017906 191.30180397 -177.20026457 172.89507569 C-158.31474458 153.97177764 -139.42263533 135.0550825 -120.5222706 116.14661064 C-117.84961623 113.47280374 -115.17703689 110.79892185 -112.50450325 108.12499428 C-111.97853426 107.5987556 -111.45256527 107.07251692 -110.91065783 106.53033161 C-102.46153126 98.07648752 -94.01933055 89.61575988 -85.57973256 81.15240442 C-77.08445623 72.63351142 -68.58184753 64.12199251 -60.07183021 55.6178247 C-55.46538644 51.01414588 -50.8624153 46.40709382 -46.26811409 41.79129219 C-42.05513824 37.55874553 -37.83288442 33.33568278 -33.60331524 29.11971966 C-32.08139066 27.59947488 -30.56279139 26.07589154 -29.04803603 24.5485033 C-19.95047438 15.37954872 -10.67332492 7.29290343 0 0 Z " fill="#10797A" transform="translate(523,28)"/>
<path d="M0 0 C0.33 1.32 0.66 2.64 1 4 C0.26652344 4.26296875 -0.46695313 4.5259375 -1.22265625 4.796875 C-11.79107015 9.37503461 -20.08460496 19.87930653 -28 28 C-28.66 27.67 -29.32 27.34 -30 27 C-21.68721309 17.40983448 -12.93296395 8.61351317 -2 2 C-1.34 2 -0.68 2 0 2 C0 1.34 0 0.68 0 0 Z " fill="#8C4E18" transform="translate(789,474)"/>
<path d="M0 0 C0.66 0.33 1.32 0.66 2 1 C-4.93 7.93 -11.86 14.86 -19 22 C-19.66 21.67 -20.32 21.34 -21 21 C-14.35150847 13.52992682 -7.59684563 6.52570688 0 0 Z " fill="#A0A0A0" transform="translate(917,143)"/>
<path d="M0 0 C0.66 0.99 1.32 1.98 2 3 C-10.48519362 15.66970387 -10.48519362 15.66970387 -17 21 C-17.66 20.67 -18.32 20.34 -19 20 C-18.45996338 19.4652002 -17.91992676 18.93040039 -17.36352539 18.37939453 C-14.92725624 15.96386294 -12.49483893 13.54448883 -10.0625 11.125 C-9.21236328 10.28324219 -8.36222656 9.44148437 -7.48632812 8.57421875 C-6.67744141 7.76855469 -5.86855469 6.96289062 -5.03515625 6.1328125 C-4.2862915 5.38918457 -3.53742676 4.64555664 -2.76586914 3.87939453 C-0.93702297 2.1128324 -0.93702297 2.1128324 0 0 Z " fill="#782D24" transform="translate(1051,955)"/>
<path d="M0 0 C3.35111834 2.23407889 4.81553956 3.26215824 5.8125 7.25 C5.874375 8.1575 5.93625 9.065 6 10 C4.85073734 9.04578192 3.70569459 8.08647955 2.5625 7.125 C1.92441406 6.59132813 1.28632813 6.05765625 0.62890625 5.5078125 C-1 4 -1 4 -2 2 C-1.34 2 -0.68 2 0 2 C0 1.34 0 0.68 0 0 Z " fill="#11717E" transform="translate(331,796)"/>
<path d="M0 0 C4.41889613 1.35021826 6.34345343 3.26115668 9 7 C6.75 7.3125 6.75 7.3125 4 7 C0 2.89189189 0 2.89189189 0 0 Z " fill="#9B2D30" transform="translate(1106,660)"/>
<path d="M0 0 C1.14926266 0.95421808 2.29430541 1.91352045 3.4375 2.875 C4.07558594 3.40867187 4.71367188 3.94234375 5.37109375 4.4921875 C7 6 7 6 8 8 C5.125 7.375 5.125 7.375 2 6 C0.625 2.875 0.625 2.875 0 0 Z " fill="#7A1932" transform="translate(1099,651)"/>
<path d="M0 0 C1.9375 0.6875 1.9375 0.6875 4 2 C4.75 4.625 4.75 4.625 5 7 C3.02 5.35 1.04 3.7 -1 2 C-0.67 1.34 -0.34 0.68 0 0 Z " fill="#10657C" transform="translate(338,805)"/>
</svg>
